<svg xmlns="http://www.w3.org/2000/svg" xmlns:xlink="http://www.w3.org/1999/xlink" width="1521.213" height="579.356" viewBox="0 0 1521.213 579.356">
  <defs>
    <clipPath id="clip-Full_Logo_B_W">
      <rect width="1521.213" height="579.356"/>
    </clipPath>
  </defs>
  <g id="Full_Logo_B_W" data-name="Full Logo B/W" clip-path="url(#clip-Full_Logo_B_W)">
    <g id="Group_4" data-name="Group 4" transform="translate(0 47.546)">
      <path id="Path_18" data-name="Path 18" d="M34.276,8.8v-20.69H220.5V8.8h20.692V70.878H199.806V29.5H54.968V70.878H13.585V8.8Z" transform="translate(151.945 398.858)" fill="#fff" fill-rule="evenodd"/>
      <path id="Path_19" data-name="Path 19" d="M206.913,14.213V-6.479H227.6v-20.69h62.073v20.69h20.692V14.213h62.073V34.9h20.692V96.978H372.443v20.692H41.383V76.286H351.751V55.6H0V14.213Z" transform="translate(0 227.919)" fill="#fff" fill-rule="evenodd"/>
      <path id="Path_20" data-name="Path 20" d="M0,220.955V-6.163L41.383-47.546H558.664L600.047-6.163v496.59L558.664,531.81H41.383L0,490.427V304.691H20.205v62.073h62.56v82.28l20.692,20.691H496.591l20.69-20.691V55.91l-20.69-20.649H103.456L82.765,55.91V220.955Zm0,62.56H351.751v-.052H0Zm41.383,62.073H82.766v-.052H41.383Z" transform="translate(0 0)" fill="#fff" fill-rule="evenodd"/>
      <path id="Path_21" data-name="Path 21" d="M60.8-3.887,91.594-34.677,112.121-14.15,81.331,16.64,112.121,47.43,91.594,67.956,60.8,37.167,30.014,67.956,9.487,47.43,40.278,16.64,9.487-14.15,30.014-34.677Zm184.246,0L275.84-34.677,296.366-14.15,265.577,16.64,296.366,47.43,275.84,67.956,245.05,37.167,214.261,67.956,193.734,47.43,224.523,16.64,193.734-14.15l20.527-20.527Z" transform="translate(106.117 143.946)" fill="#fff" fill-rule="evenodd"/>
      <path id="Path_22" data-name="Path 22" d="M492.382,198.9v40.863H257.7V221.249c1.277-1.277,3.193-1.916,4.469-2.554V-26.477c-1.277-.638-3.193-1.277-4.469-2.554V-47.546H433.275v18.515l-5.108,2.554V198.9Zm-167.648,0H365.6V-7.323H324.735ZM685.466-26.477V218.695l5.106,2.554v18.516H515V198.633l5.108-2.554V-26.477L515-29.031V-47.546h72.785v18.515l-5.108,2.554V198.9H622.9V-26.477l-4.46-2.554V-47.546h72.136v18.515Zm38.956,245.172V-26.477L719.3-29.031V-47.546H895.525v18.515l-5.106,2.554V218.695l5.106,2.554v18.516H822.744V221.249l5.106-2.554V129.31c-12.77,1.916-28.1,4.47-40.869,5.108v84.277l5.118,2.554v18.516H719.3V221.249Zm62.558-132.8,40.869-8.939V-7.322H786.98ZM61.047,218.695V-26.477l-5.108-2.554V-47.546H232.157v18.515l-5.108,2.554V218.695l5.108,2.554v18.516H159.372V221.249l5.108-2.554V129.31l-40.862,5.108v84.277l5.107,2.554v18.516H55.939V221.249Zm62.571-132.8,40.862-8.939V-7.322H123.618ZM812.874,419.429v74.326h82.652V531.81H750.437V514.566a14.927,14.927,0,0,1,4.167-2.379V283.858a14.928,14.928,0,0,1-4.167-2.379V264.237H895.525V301.7H812.874v89.191h36.909v28.541ZM300.324,448.3v63.888l4.756,2.379V531.81H237.89V514.566l4.163-2.379V283.858l-4.163-2.379V264.237H374.65c8.919.595,17.838,8.918,17.838,15.459a248.832,248.832,0,0,1,4.162,42.811v62.434c0,15.46-8.919,30.325-24.379,35.677,0,0,24.379,16.649,24.379,38.65v52.92l4.757,2.379V531.81H333.621V514.566l4.757-2.379V443.544Zm38.054-56.978V301.7H300.324v97.951ZM516.166,281.48V264.237h67.786c24.967,77.3,14.269,38.649,37.457,117.137,23.188-78.488,12.49-39.838,37.457-117.137h67.786V281.48a14.871,14.871,0,0,1-4.155,2.379V512.188a14.87,14.87,0,0,1,4.155,2.379V531.81H658.866V514.566l4.764-2.379V375.342c-7.567,21.551-22.591,67.276-22.591,67.276H601.791s-15.036-45.726-22.6-67.276V512.188l4.757,2.379V531.81H516.166V514.566a14.905,14.905,0,0,1,4.162-2.379V283.858A14.907,14.907,0,0,1,516.166,281.48ZM123.131,531.81H55.939V514.566l4.757-2.379V283.858l-4.757-2.379V264.237H189.132c10.108,0,17.243,6.54,19.027,15.459,4.162,22.595,5.946,46.379,5.946,74.92a453.8,453.8,0,0,1-3.568,58.866A40.932,40.932,0,0,1,170.1,448.565H118.968v63.623l4.162,2.379ZM118.968,411.1h37.461V301.7H118.968ZM492.382,531.81H425.191V514.566l4.757-2.379V283.858l-4.757-2.379V264.237h67.191V281.48l-4.163,2.379V512.188l4.163,2.379Z" transform="translate(625.688 0)" fill="#fff" fill-rule="evenodd"/>
    </g>
  </g>
</svg>
